<?xml version="1.0" encoding="utf-8"?>
<!-- Generator: Adobe Illustrator 22.1.0, SVG Export Plug-In . SVG Version: 6.00 Build 0)  -->
<svg version="1.1" id="圖層_1" xmlns="http://www.w3.org/2000/svg" xmlns:xlink="http://www.w3.org/1999/xlink" x="0px" y="0px"
	 viewBox="0 0 300 104.2" style="enable-background:new 0 0 300 104.2;" xml:space="preserve">
<style type="text/css">
	.st0{fill:#E5A877;}
	.st1{fill:#D93C53;}
	.st2{fill:#D7E8EE;}
</style>
<g>
	<path class="st0" d="M135.9,80.4V58.2H130v9.4c0,3.2-0.1,5.2-0.4,6c-0.3,0.8-0.8,1.5-1.6,2c-0.8,0.5-1.7,0.8-2.7,0.8
		c-0.9,0-1.6-0.2-2.2-0.6c-0.6-0.4-1-1-1.2-1.7c-0.2-0.7-0.3-2.6-0.3-5.7V58.2h-5.9v14c0,2.1,0.3,3.7,0.8,4.9
		c0.5,1.2,1.4,2.1,2.6,2.8c1.2,0.7,2.5,1,4,1c1.5,0,2.8-0.3,4.2-1c1.3-0.7,2.4-1.6,3.2-2.8v3.3H135.9z"/>
	<path class="st0" d="M157.4,59.5c-1.6-1.2-3.7-1.7-6.4-1.7c-3.3,0-5.9,1-7.8,3.1c-1.9,2-2.9,4.9-2.9,8.5c0,3.6,1,6.4,2.9,8.5
		c1.9,2,4.5,3.1,7.8,3.1c2.9,0,5.1-0.7,6.8-2c1.7-1.3,2.8-3.3,3.4-6l-5.8-1c-0.3,1.5-0.8,2.6-1.5,3.3c-0.7,0.6-1.6,1-2.7,1
		c-1.5,0-2.7-0.5-3.6-1.6c-0.9-1.1-1.3-2.9-1.3-5.6c0-2.4,0.4-4.1,1.3-5.1s2-1.5,3.5-1.5c1.1,0,2,0.3,2.7,0.9
		c0.7,0.6,1.1,1.5,1.3,2.6l5.8-1C160.2,62.4,159,60.6,157.4,59.5z"/>
	<path class="st0" d="M237,55c2.2,0,3.7,0.1,4.4,0.2c1,0.2,1.8,0.6,2.5,1.4c0.7,0.7,1,1.6,1,2.8c0,0.9-0.2,1.7-0.7,2.4
		c-0.5,0.7-1.1,1.2-1.9,1.5c-0.8,0.3-2.4,0.5-4.9,0.5H234V55H237z M234,80.4V68.9h4c2.8,0,4.9-0.1,6.4-0.4c1.1-0.2,2.2-0.7,3.2-1.5
		c1-0.7,1.9-1.7,2.6-3c0.7-1.3,1-2.9,1-4.7c0-2.4-0.6-4.4-1.8-6c-1.2-1.5-2.7-2.5-4.4-3c-1.1-0.3-3.6-0.5-7.3-0.5h-9.9v30.6H234z
		 M196.8,64.3c1-1.2,2.3-1.8,3.9-1.8s2.8,0.6,3.9,1.8s1.6,2.8,1.6,5c0,2.2-0.5,3.9-1.6,5.1c-1,1.2-2.3,1.8-3.9,1.8s-2.8-0.6-3.9-1.8
		c-1-1.2-1.6-2.9-1.6-5.1S195.8,65.4,196.8,64.3z M190.7,75.5c1,1.8,2.4,3.1,4.2,4c1.8,0.9,3.8,1.4,5.8,1.4c3.3,0,6-1.1,8.2-3.3
		c2.2-2.2,3.2-5,3.2-8.3c0-3.3-1.1-6.1-3.2-8.3c-2.1-2.2-4.9-3.3-8.2-3.3c-2.2,0-4.1,0.5-5.9,1.4s-3.1,2.4-4.1,4.2
		c-1,1.8-1.4,3.7-1.4,5.7C189.3,71.5,189.7,73.7,190.7,75.5z M164.9,49.8v30.6h5.9V69.3c0-1.9,0.2-3.3,0.5-4.2
		c0.4-1,0.9-1.7,1.7-2.1c0.8-0.5,1.6-0.7,2.6-0.7c0.8,0,1.6,0.2,2.1,0.6c0.6,0.4,1,0.9,1.2,1.5s0.3,2.1,0.3,4.4v11.7h5.9v-13
		c0-2-0.1-3.5-0.3-4.4c-0.2-0.9-0.6-1.8-1.1-2.6c-0.5-0.8-1.4-1.4-2.5-1.9c-1.1-0.5-2.3-0.8-3.7-0.8c-2.6,0-4.9,1.1-6.8,3.3V49.8
		H164.9z"/>
	<path class="st0" d="M268.2,70.9c0,1.4-0.1,2.4-0.2,2.9c-0.2,0.8-0.7,1.4-1.4,1.9c-1,0.7-2,1-3,1c-0.9,0-1.7-0.3-2.3-0.9
		c-0.6-0.6-0.9-1.3-0.9-2.1c0-0.8,0.4-1.5,1.1-2.1c0.5-0.3,1.6-0.7,3.2-1c1.6-0.3,2.8-0.6,3.6-0.9V70.9z M261.8,62.8
		c0.6-0.4,1.4-0.6,2.4-0.6c1.5,0,2.6,0.2,3.2,0.7c0.6,0.5,0.8,1.3,0.8,2.4v0.6c-1.1,0.4-3,0.9-5.7,1.4c-2,0.4-3.6,0.8-4.7,1.4
		s-1.9,1.3-2.5,2.3c-0.6,1-0.9,2.1-0.9,3.3c0,1.9,0.7,3.5,2,4.7c1.3,1.2,3.1,1.9,5.4,1.9c1.3,0,2.5-0.2,3.7-0.7
		c1.1-0.5,2.2-1.2,3.2-2.2c0,0.1,0.1,0.3,0.2,0.7c0.2,0.8,0.4,1.3,0.6,1.7h5.8c-0.5-1.1-0.9-2-1.1-3c-0.2-0.9-0.3-2.4-0.3-4.3
		l0.1-6.8c0-2.5-0.3-4.3-0.8-5.2c-0.5-1-1.4-1.7-2.7-2.4c-1.3-0.6-3.2-0.9-5.8-0.9c-2.9,0-5.1,0.5-6.5,1.5c-1.5,1-2.5,2.6-3.1,4.8
		l5.3,1C260.7,64,261.2,63.2,261.8,62.8z"/>
	<path class="st0" d="M285,80.5c-0.3,1.2-0.8,2.3-1.5,3.1c-0.7,0.8-1.7,1.2-3,1.2c-0.7,0-1.6-0.1-2.5-0.3l0.5,4.6
		c1.1,0.2,2.2,0.4,3.3,0.4c1.1,0,2.1-0.1,3-0.4c0.9-0.2,1.6-0.6,2.2-1c0.6-0.4,1.1-1,1.6-1.7c0.5-0.7,1-1.7,1.5-3l1.4-3.9l7.8-21.3
		h-6.1L288.1,74l-5.3-15.7h-6.2L285,80.5z"/>
	<path class="st1" d="M39.9,36.4c0,19.9,16.2,36.1,36.3,36.1c20,0,36.3-16.2,36.3-36.1c0-19.9-16.2-36.1-36.3-36.1
		C56.2,0.4,39.9,16.5,39.9,36.4"/>
	<path class="st1" d="M0.1,67.8c0,19.9,16.2,36.1,36.3,36.1s36.3-16.2,36.3-36.1S56.4,31.7,36.4,31.7S0.1,47.8,0.1,67.8"/>
	<path class="st2" d="M71.6,25.2L55.6,62L41.3,26.2C45.7,11.1,59.7,0,76.2,0c20.1,0,36.3,16.3,36.3,36.3c0,18-13.1,32.9-30.2,35.8
		V25.2H71.6z"/>
	<path class="st0" d="M30.3,32v53.6H41V52L51,77.2h10.2l10.7-24.8v23c-3.5,16.5-18.1,28.8-35.6,28.8C16.3,104.2,0,87.9,0,67.9
		C0,49.9,13.1,34.9,30.3,32"/>
</g>
</svg>
